# xmcd
#
# Track frame offsets: 
#        150
#        10320
#        21477
#        34162
#        45020
#        55550
#        65575
#        78517
#        92880
#        102562
#        111332
#        124457
#        133710
#        145977
#        159072
#        170022
#        181590
#        193300
#        203185
#        211755
#        222365
#        234437
#        248232
#        261620
#
# Disc length: 3638 seconds
#
# Revision: 1
# Processed by: cddbd v1.5.2PL0 Copyright (c) Steve Scherf et al.
# Submitted via: ExactAudioCopy v0.95b2
#
DISCID=600e3418
DTITLE=Jerry Wallace - Primrose Lane: The Very Best of Jerry Wallace 
DYEAR=1900
DGENRE=Oldies
TTITLE0=Primrose Lane
TTITLE1=How The Time Flies
TTITLE2=In The Misty Moonlight
TTITLE3=The Bottle The Glass And Me
TTITLE4=Empty Arms Again
TTITLE5=Little Miss Tease
TTITLE6=The Last Plane To Seattle
TTITLE7=Ruby Red Wine
TTITLE8=All My Love Belongs To You
TTITLE9=Because We're Young
TTITLE10=You're Driving Me Out Of My Mind
TTITLE11=Helpless
TTITLE12=Mr Lonely
TTITLE13=Teardrops In The Rain
TTITLE14=San Antonio Rose
TTITLE15=Only Twenty
TTITLE16=I Can See An Angel
TTITLE17=What's He Doing In My World
TTITLE18=With Pen In Hand
TTITLE19=Fool's Hall Of Fame
TTITLE20=Jealousy
TTITLE21=I Hate To Say Goodbye Again
TTITLE22=Even The Bad Times Are Good
TTITLE23=Mystic Moonlight Night
EXTD=
EXTT0=
EXTT1=
EXTT2=
EXTT3=
EXTT4=
EXTT5=
EXTT6=
EXTT7=
EXTT8=
EXTT9=
EXTT10=
EXTT11=
EXTT12=
EXTT13=
EXTT14=
EXTT15=
EXTT16=
EXTT17=
EXTT18=
EXTT19=
EXTT20=
EXTT21=
EXTT22=
EXTT23=
PLAYORDER=
